<?xml version="1.0" encoding="UTF-8" standalone="no"?>
<!-- Created with Inkscape (http://www.inkscape.org/) -->

<svg
   width="512"
   height="578"
   viewBox="0 0 512 578"
   version="1.1"
   id="svg1"
   xml:space="preserve"
   inkscape:version="1.4.3 (0d15f75042, 2025-12-25)"
   sodipodi:docname="logo-单色lyk.svg"
   xmlns:inkscape="http://www.inkscape.org/namespaces/inkscape"
   xmlns:sodipodi="http://sodipodi.sourceforge.net/DTD/sodipodi-0.dtd"
   xmlns="http://www.w3.org/2000/svg"
   xmlns:svg="http://www.w3.org/2000/svg"><sodipodi:namedview
     id="namedview1"
     pagecolor="#ffffff"
     bordercolor="#999999"
     borderopacity="1"
     inkscape:showpageshadow="2"
     inkscape:pageopacity="0"
     inkscape:pagecheckerboard="0"
     inkscape:deskcolor="#d1d1d1"
     inkscape:document-units="px"
     showgrid="true"
     inkscape:zoom="0.50000001"
     inkscape:cx="130"
     inkscape:cy="57.999998"
     inkscape:window-width="1440"
     inkscape:window-height="830"
     inkscape:window-x="-6"
     inkscape:window-y="-6"
     inkscape:window-maximized="1"
     inkscape:current-layer="svg1"
     showguides="false"><sodipodi:guide
       position="0,512"
       orientation="0,512"
       id="guide1"
       inkscape:locked="false" /><sodipodi:guide
       position="512,512"
       orientation="512,0"
       id="guide2"
       inkscape:locked="false" /><sodipodi:guide
       position="512,0"
       orientation="0,-512"
       id="guide3"
       inkscape:locked="false" /><sodipodi:guide
       position="0,0"
       orientation="-512,0"
       id="guide4"
       inkscape:locked="false" /><inkscape:grid
       id="grid4"
       units="px"
       originx="0"
       originy="0"
       spacingx="64"
       spacingy="64"
       empcolor="#0099e5"
       empopacity="0.30196078"
       color="#0099e5"
       opacity="0.14901961"
       empspacing="5"
       enabled="true"
       visible="true" /></sodipodi:namedview><defs
     id="defs1" /><path
     id="path50"
     style="display:inline"
     d="M 310.62109 34.460938 C 310.17482 34.458137 309.75661 34.477264 309.375 34.521484 C 306.30774 34.876914 302.10584 35.595551 292 37.494141 C 246.9787 45.297027 164.16188 60.588693 157.11523 62.001953 C 150.06858 63.415213 142.64063 64.728556 140.125 66.160156 C 136.23089 68.376216 131.24744 73.342226 128.88477 77.361328 C 126.65331 81.157233 125.22483 85.546235 124.78516 89.853516 C 124.74786 90.005098 124.77313 96.167143 124.74023 96.351562 C 124.52953 108.171 124.55542 220.72486 124.6875 267.8418 C 124.83217 271.87107 124.99805 303.50977 124.99805 303.50977 C 127.5725 303.67903 161.17566 298.66015 161.5332 298.25586 C 175.57566 235.78891 189.45934 173.28382 203.24805 110.75977 C 207.75047 90.276322 208.1892 88.567049 210.00586 84.408203 C 215.84416 71.0427 228.20775 62.735457 241.125 63.498047 C 245.13087 63.734537 245.69119 63.87448 274.75 71.912109 C 295.61906 77.68446 320.97514 84.781404 329.875 87.339844 C 333.5875 88.407075 336.8125 89.152344 336.8125 89.152344 C 336.8125 89.152344 337 82.583011 337 74.707031 C 337 58.88572 336.89157 57.355483 335.49805 53.539062 C 333.40694 47.812185 329.65882 43.294787 328.48633 42.289062 C 326.31453 40.426158 323.96103 38.570815 321.52148 37.251953 C 318.263 35.609447 313.74498 34.480654 310.62109 34.460938 z M 238.45898 72.212891 C 232.41497 72.473925 227.51169 74.706314 222.89258 79.302734 C 219.73714 82.442667 216.75131 87.357174 215.48828 91.488281 C 215.20939 92.400491 213.02354 102.02441 210.63086 112.875 C 208.23818 123.7256 203.30143 146.10878 199.6582 162.61719 C 193.39672 190.98954 191.11134 201.3765 180.62305 249.14062 C 171.44871 290.92098 170.25 296.45245 170.25 297.02539 C 170.25 297.34994 170.36379 297.61719 170.50391 297.61719 C 170.72062 297.61719 177.0441 296.31196 180.08203 295.64062 C 180.60871 295.52425 181.12726 295.31838 181.23438 295.18359 C 181.34149 295.04879 182.52182 289.92948 183.85742 283.80664 C 185.19303 277.68381 187.73344 266.07997 189.50195 258.01953 C 191.27045 249.95909 193.06735 241.71433 193.49414 239.69922 C 194.47687 235.05922 197.02452 223.30271 200.64062 206.72461 C 202.19594 199.59422 205.55701 184.18557 208.10938 172.48242 C 210.66174 160.77928 214.71768 142.19896 217.12305 131.19336 C 219.52843 120.18776 222.27892 107.57389 223.23438 103.16211 C 225.37531 93.276365 226.07679 91.454152 228.99219 88.207031 C 231.35112 85.579704 234.59679 83.609439 237.43555 83.082031 C 239.9129 82.621771 241.80227 82.963806 250.78711 85.505859 C 254.82274 86.647649 261.725 88.562904 266.125 89.761719 C 270.525 90.960534 279.01875 93.308461 285 94.978516 C 290.98125 96.64857 298.575 98.73755 301.875 99.621094 C 305.175 100.50464 311.5875 102.2815 316.125 103.57031 C 320.6625 104.85913 327.3 106.6984 330.875 107.65625 C 334.45 108.6141 342.325 110.77007 348.375 112.44727 C 354.425 114.12446 363.425 116.60134 368.375 117.95117 C 385.6503 122.66204 391.13295 124.23128 392.25 124.78516 C 396.14962 126.71874 399.94232 132.17722 400.89062 137.2207 C 401.5672 140.81895 401.4262 141.94715 398.9043 153.17578 C 394.91926 170.91893 387.1569 205.72757 385.17188 214.75195 C 383.86983 220.67129 383.36784 223.40226 383.55859 223.53516 C 383.83595 223.7284 387.76002 221.53604 392.83008 218.35547 C 394.53652 217.28499 395.61348 216.42838 395.74609 216.03516 C 395.86175 215.69222 398.16781 205.40348 400.86914 193.17188 C 403.57048 180.94026 406.90191 165.86184 408.27344 159.66406 C 411.21771 146.35934 411.5 144.68089 411.5 140.44531 C 411.5 136.65234 411.04217 133.86518 409.83984 130.34766 C 407.25815 122.7947 401.34972 116.44112 394.5 113.85156 C 393.1025 113.32324 373.68325 107.96244 347.5 100.87695 C 336.59497 97.925931 308.8057 90.244637 266 78.349609 C 243.76005 72.169481 243.06047 72.014159 238.45898 72.212891 z M 161.00977 83.912109 L 173.83008 120.72656 L 166.79492 121.9668 L 163.99609 113.58398 L 151.20117 115.83984 L 148.5625 125.18164 L 141.6875 126.39453 L 154.16016 85.121094 L 161.00977 83.912109 z M 157.51953 93.644531 L 153.17383 108.91016 L 161.91602 107.36719 L 157.51953 93.644531 z M 250.04688 99.564453 L 229.51172 135.07031 L 236.22852 136.54102 L 240.70312 128.43359 L 253.20117 131.16797 L 254.03906 140.4375 L 260.91211 141.94141 L 256.74023 101.0293 L 250.04688 99.564453 z M 251.38086 109.1875 L 252.57812 124.29297 L 244.03711 122.42383 L 251.38086 109.1875 z M 157.36523 129.68555 C 163.64938 138.00371 172.68359 141.80604 172.68359 149.76367 C 172.68359 156.83333 167.96983 159.23487 165.61328 159.65039 C 162.47119 160.20443 160.11523 159.83494 160.11523 153.55078 C 160.11523 151.97974 158.54492 152.2571 158.54492 153.82812 C 158.54492 161.68332 160.11451 161.40606 161.68555 165.05664 L 153.04492 166.58008 C 154.61597 162.37546 156.1875 162.09933 156.1875 154.24414 C 156.1875 152.6731 154.61719 152.95044 154.61719 154.52148 C 154.61719 160.0201 152.25927 162.00651 149.11719 162.56055 C 146.76065 162.97607 142.83398 162.097 142.83398 155.02734 C 142.83398 147.17215 151.08108 140.21985 157.36523 129.68555 z M 420.50391 141.53125 C 419.43902 141.54334 419.64435 141.75161 419.50195 142.17383 C 419.36287 142.58624 419.24699 143.58106 419.24219 144.38477 C 419.23719 145.18847 419.0732 146.85284 418.87891 148.08203 C 418.68462 149.31122 418.58674 150.42663 418.66016 150.56055 C 418.73356 150.69447 418.68426 150.95756 418.55078 151.14453 C 418.41732 151.3315 418.22967 151.92817 418.13477 152.4707 C 418.03987 153.01323 417.90759 153.67796 417.83984 153.94922 C 417.72962 154.39053 417.93434 154.44315 419.79492 154.44336 C 427.16428 154.44419 440.14816 157.77799 443.59961 159.41016 C 447.05107 161.04233 450.66844 164.13453 451.85352 165.51758 C 454.38104 168.36658 455.67829 170.64519 454.93359 176.14453 C 454.18889 181.64387 446.67771 191.18273 441.00195 196.54492 C 436.53738 200.76282 421.56509 213.1425 395 228.84961 C 392.99816 230.03324 390.89428 231.15686 388.8125 232.27734 C 376.35955 238.99841 362.80059 245.84129 356.24219 249 C 298.22387 276.94325 197.35463 308.73398 123.625 314.68945 C 116.10431 315.29693 97.489859 315.54481 92.208984 315.10742 C 78.148334 313.94291 70.307245 311.56542 65.09375 306.88867 C 62.213546 304.30473 61 301.68044 61 298.03906 C 61 295.5368 61.485126 293.6215 62.867188 290.66992 C 66.586766 282.72626 77.40749 272.63552 91.693359 261.36133 C 93.286152 259.82896 95.186118 258.67004 96.970703 257.37695 C 102.6016 253.13593 106.67567 249.43992 113.80664 244.6582 C 114.56185 244.15179 115.15545 243.8024 115.45898 243.16602 C 115.82989 242.38838 115.77974 228.00391 115.62109 228.00391 C 88.594993 243.80172 62.166926 261.4225 41.035156 284.72656 C 37.056919 289.52982 35.357735 291.87451 33.121094 295.64844 C 27.239202 305.57306 25.996859 314.5892 29.433594 322.40625 C 32.950989 330.40677 41.483669 336.52671 54.222656 340.18555 C 68.364732 344.24739 85.74574 345.55391 110.125 344.39062 C 180.24571 341.04482 269.69232 311.20677 274.875 309.45312 C 290.99856 304.39026 306.62206 297.96883 322.31641 291.74023 C 332.94949 287.54385 343.92171 283.46271 354.04492 278.88086 C 370.14051 271.61022 385.36412 264.29279 398.33398 256.99414 C 410.306 250.25702 420.10372 243.97026 429.31055 237.73242 C 431.55161 236.20051 434.04865 234.65997 436.16016 233.13281 C 445.52258 226.4259 452.66519 221.07791 460.75 213.09961 C 468.83481 205.12131 470.37051 202.5808 471.65234 201.12695 C 475.08641 197.23203 481.41743 187.39853 483.21289 181.64258 C 484.6228 176.87334 484.79004 167.4695 481.76758 162.25 C 481.08767 161.07586 479.86079 159.35775 479.04102 158.43359 C 476.39797 155.45399 471.33813 151.22713 462.25 147.99023 C 454.83988 145.35097 441.10619 142.89337 429.125 142.06445 C 423.90391 141.70323 421.5688 141.51916 420.50391 141.53125 z M 243.53516 144.33789 C 235.38169 152.20334 226.1475 155.81262 224.46875 163.48633 C 222.95788 170.39266 226.45962 172.76591 228.76172 173.26953 C 231.83121 173.94103 234.46941 172.91065 235.64453 167.53906 C 235.98028 166.00432 237.51544 166.34026 237.17969 167.875 C 235.50094 175.54871 233.96593 175.21178 231.5918 178.71289 L 240.0332 180.56055 C 239.33784 176.38794 237.80172 176.05066 239.48047 168.37695 C 239.81622 166.84221 241.35138 167.17815 241.01562 168.71289 C 239.67262 174.85187 241.80746 176.12342 244.87695 176.79492 C 247.17906 177.29855 252.11803 176.77156 253.62891 169.86523 C 255.32955 162.09145 247.65962 154.88934 243.53516 144.33789 z M 301.44531 182.74023 C 298.6461 185.35138 295.87463 188.19784 292.79883 190.64258 C 283.46981 198.86681 273.12893 205.84368 263.60352 213.83789 C 258.12181 218.64947 252.03374 223.05292 247.85547 229.11523 C 240.28085 240.80359 239.62659 257.46132 248.58789 268.60547 C 251.00238 271.59591 254.02182 275.69776 258.18359 275.67969 C 259.14807 275.67569 259.66682 275.72295 259.85547 275.59375 C 266.52299 273.49657 272.97807 271.13459 279.11719 268.87305 C 296.02755 263.12951 312.78747 256.88616 329.05859 249.50586 C 332.76345 245.56583 328.13114 239.92896 327.32031 235.54297 C 320.18587 220.68708 310.98942 206.86578 304.93555 191.48047 C 303.7232 188.58711 302.56266 185.67155 301.44531 182.74023 z M 383.47266 275.95703 C 383.06129 275.96679 382.07288 276.43689 380.08789 277.49414 C 378.45815 278.36218 375.8875 279.70123 374.375 280.4707 C 372.8625 281.24016 371.54371 281.95959 371.44531 282.06836 C 371.24027 282.29499 364.51702 312.49864 362.27539 323.26367 C 360.82672 330.22064 357.51174 345.58755 350.75391 376.66992 C 348.96773 384.88537 346.49852 396.25004 345.26562 401.92383 C 342.95319 412.56566 342.19913 415.31799 341.07227 417.25391 C 338.43455 421.78544 334.98988 424.53297 330.24805 425.88477 C 326.51885 426.94789 328.95737 427.5402 278.60547 413.33398 C 262.39163 408.75943 239 402.16598 226.625 398.68164 C 192.0532 388.94751 178.46947 385.06962 177.36133 384.61719 C 175.42711 383.8275 173.28592 382.45693 171.78711 381.05078 C 169.10821 378.53751 166.83843 374.26823 166.25586 370.64648 C 165.86945 368.24416 166.10825 366.6641 168.50195 355.83789 C 169.5937 350.90016 170.42305 346.74221 170.34375 346.59766 C 170.2645 346.45309 170.0301 346.40699 169.82422 346.49609 C 169.61834 346.58516 167.2392 347.11556 164.53711 347.67383 C 161.83503 348.2321 159.58636 348.7298 159.53906 348.7793 C 159.37996 348.94582 156.7692 361.00655 156.35352 363.49609 C 155.74141 367.16202 155.96651 372.52531 156.85938 375.54297 C 158.40034 380.751 160.42812 384.34507 163.99023 388.18164 C 167.89453 392.38676 171.12693 394.22159 178.625 396.49219 C 186.69827 398.93697 218.74071 408.11062 241.375 414.45703 C 246.6 415.92207 252.28125 417.55333 254 418.08203 C 255.71875 418.61073 259.88125 419.80883 263.25 420.74414 C 266.61875 421.67945 277.3625 424.67787 287.125 427.4082 C 312.78108 434.58358 322.77372 437.34135 323.625 437.48047 C 325.16066 437.7314 329.70711 437.67681 331.14062 437.39062 C 336.55831 436.3091 341.68137 433.21027 346.02148 428.38672 C 349.55369 424.46105 351.96762 420.11942 353.33203 415.24219 C 353.99634 412.86755 355.60986 405.62763 358.87891 390.33984 C 359.92302 385.45707 361.77691 376.89672 363 371.31641 C 364.22308 365.73611 366.31119 356.15995 367.64062 350.03711 C 368.97008 343.91428 371.15469 333.89627 372.49414 327.77344 C 373.8336 321.6506 375.46471 314.10408 376.11914 311.00391 C 378.47688 299.83473 383.12549 278.56958 383.68164 276.4082 C 383.75828 276.11036 383.71947 275.95103 383.47266 275.95703 z M 286.92383 313.85742 L 260.70703 322.62109 L 292.33398 330.60547 L 286.92383 313.85742 z M 326.93945 330.14453 C 327.63482 334.31714 329.16899 334.65246 327.49023 342.32617 C 327.15448 343.86092 325.61933 343.52498 325.95508 341.99023 C 327.29808 335.85126 325.1652 334.57971 322.0957 333.9082 C 319.7936 333.40458 314.85267 333.93352 313.3418 340.83984 C 311.64115 348.61363 319.31304 355.81574 323.4375 366.36719 C 331.59097 358.50174 340.8232 354.89246 342.50195 347.21875 C 344.01283 340.31242 340.51303 337.93722 338.21094 337.43359 C 335.14145 336.76209 332.50325 337.79443 331.32812 343.16602 C 330.99237 344.70076 329.45722 344.36482 329.79297 342.83008 C 331.47172 335.15637 333.00673 335.49134 335.38086 331.99023 L 326.93945 330.14453 z M 150.46289 350.85352 C 150.31327 350.85552 150.12092 350.89069 149.88477 350.93359 C 148.05586 351.2659 131.39558 353.34852 127.9043 353.68164 C 126.26996 353.83758 124.86985 354.03638 124.79297 354.12305 C 124.71607 354.20975 124.67146 364.67556 124.69531 377.37891 C 124.73611 399.02535 124.76891 400.63967 125.22266 403.08789 C 126.30904 408.95048 128.51998 413.43392 132.73828 418.33984 C 136.11602 422.26819 139.29391 424.57072 143.875 426.40625 C 149.34125 428.59645 151.95252 428.61405 163.45117 426.54102 C 171.10671 425.16085 178.35302 423.8331 195 420.75586 C 201.546 419.54582 215.303 416.81349 215.75 416.63477 C 216.19954 416.45503 215.99634 416.37837 211.875 415.17383 C 207.74727 413.96743 200.10517 411.69418 195.75 410.37695 C 193.75625 409.77393 189.425 408.49368 186.125 407.5332 C 178.48577 405.30975 172.61629 403.45936 170.96484 402.75195 C 170.25351 402.44725 169.57707 402.26284 169.46094 402.34375 C 169.34481 402.42465 169.25 402.37195 169.25 402.22461 C 169.25 401.99035 168.03767 401.48688 167.77734 401.61328 C 167.72394 401.63918 167.61146 401.54728 167.52734 401.4082 C 167.44324 401.26917 166.49664 400.62573 165.42383 399.97852 C 157.51289 395.206 151.06702 386.10975 148.87695 376.63086 C 147.44209 370.4206 147.78404 364.6935 150.19141 354.66797 C 150.9649 351.44674 151.11126 350.84402 150.46289 350.85352 z M 306.05859 368.76367 L 310.23242 409.67578 L 316.92383 411.13867 L 337.46094 375.63281 L 330.74219 374.16406 L 326.26758 382.26953 L 313.76953 379.53516 L 312.93359 370.26758 L 306.05859 368.76367 z M 314.39453 386.41211 L 322.93555 388.2793 L 315.5918 401.51562 L 314.39453 386.41211 z M 294.75 465.91406 C 285.97295 465.91406 278.88983 468.80692 273.50391 474.5918 C 268.11799 480.34818 265.42578 488.44123 265.42578 498.87109 C 265.42578 508.73103 268.10547 516.5096 273.46289 522.20898 C 278.82031 527.87987 285.65938 530.7168 293.98047 530.7168 C 300.70574 530.7168 306.2474 529.06346 310.60742 525.75781 C 314.99594 522.42368 318.13092 517.33731 320.01172 510.49805 L 307.74414 506.60742 C 306.68975 511.19542 304.95154 514.55804 302.5293 516.69531 C 300.10706 518.83258 297.2142 519.90234 293.85156 519.90234 C 289.29206 519.90234 285.58797 518.22006 282.73828 514.85742 C 279.88859 511.49478 278.46289 505.85183 278.46289 497.92969 C 278.46289 490.4635 279.90306 485.06461 282.78125 481.73047 C 285.68793 478.39633 289.46242 476.72852 294.10742 476.72852 C 297.47006 476.72852 300.3195 477.66998 302.65625 479.55078 C 305.0215 481.43157 306.57549 483.99549 307.31641 487.24414 L 319.83984 484.25195 C 318.415 479.23649 316.27938 475.38964 313.42969 472.71094 C 308.64221 468.17992 302.41567 465.91406 294.75 465.91406 z M 53.28125 466.98242 L 68.242188 529.64648 L 81.962891 529.64648 L 94.402344 482.79883 L 106.88281 529.64648 L 120.30469 529.64648 L 135.52344 466.98242 L 122.78516 466.98242 L 113.16602 510.75391 L 102.18164 466.98242 L 87.134766 466.98242 L 75.679688 510.02734 L 66.232422 466.98242 L 53.28125 466.98242 z M 141.12305 466.98242 L 141.12305 478.0957 L 153.13477 478.0957 L 153.13477 466.98242 L 141.12305 466.98242 z M 165.44531 466.98242 L 165.44531 529.64648 L 177.45508 529.64648 L 177.45508 466.98242 L 165.44531 466.98242 z M 219.38867 466.98242 L 219.38867 489.55273 C 215.68408 485.33519 211.29511 483.22656 206.22266 483.22656 C 200.69426 483.22656 196.12106 485.23585 192.50195 489.25391 C 188.88285 493.24347 187.07422 499.08513 187.07422 506.7793 C 187.07422 514.30248 188.92626 520.17309 192.63086 524.39062 C 196.36395 528.57967 200.8378 530.67383 206.05273 530.67383 C 208.61745 530.67383 211.15438 530.04684 213.66211 528.79297 C 216.19833 527.51061 218.39184 525.57174 220.24414 522.97852 L 220.24414 529.64648 L 231.40039 529.64648 L 231.40039 466.98242 L 219.38867 466.98242 z M 443.16016 466.98242 L 443.16016 489.55273 C 439.45556 485.33519 435.06854 483.22656 429.99609 483.22656 C 424.46769 483.22656 419.89255 485.23585 416.27344 489.25391 C 412.65433 493.24347 410.8457 499.08513 410.8457 506.7793 C 410.8457 514.30248 412.69774 520.17309 416.40234 524.39062 C 420.13544 528.57967 424.60929 530.67383 429.82422 530.67383 C 432.38895 530.67383 434.92587 530.04684 437.43359 528.79297 C 439.96982 527.51061 442.16333 525.57174 444.01562 522.97852 L 444.01562 529.64648 L 455.17188 529.64648 L 455.17188 466.98242 L 443.16016 466.98242 z M 348.52344 483.22656 C 342.62458 483.22656 338.17772 484.27991 335.18555 486.38867 C 332.19337 488.49745 330.08475 491.74624 328.85938 496.13477 L 339.75977 498.10156 C 340.50069 495.9928 341.46914 494.52563 342.66602 493.69922 C 343.86288 492.84431 345.5307 492.41602 347.66797 492.41602 C 350.83113 492.41602 352.98317 492.91472 354.12305 493.91211 C 355.26293 494.881 355.83203 496.51988 355.83203 498.82812 L 355.83203 500.02539 C 353.66626 500.9373 349.776 501.92023 344.16211 502.97461 C 340.00156 503.77252 336.81065 504.71204 334.58789 505.79492 C 332.39363 506.84931 330.68435 508.38883 329.45898 510.41211 C 328.23362 512.40689 327.62109 514.68723 327.62109 517.25195 C 327.62109 521.12753 328.95997 524.33292 331.63867 526.86914 C 334.34588 529.40537 338.03549 530.67383 342.70898 530.67383 C 345.3592 530.67383 347.85271 530.17513 350.18945 529.17773 C 352.5262 528.18034 354.72166 526.68423 356.77344 524.68945 C 356.85892 524.91743 357.00169 525.38718 357.20117 526.09961 C 357.65713 527.66694 358.04005 528.84857 358.35352 529.64648 L 370.23828 529.64648 C 369.18389 527.48072 368.4556 525.45892 368.05664 523.57812 C 367.68618 521.66883 367.50195 518.71808 367.50195 514.72852 L 367.63086 500.70898 C 367.63086 495.49405 367.08874 491.91826 366.00586 489.98047 C 364.95147 488.01418 363.11391 486.40425 360.49219 485.15039 C 357.87047 483.86803 353.88086 483.22656 348.52344 483.22656 z M 400.45898 483.22656 C 398.5212 483.22656 396.78297 483.71079 395.24414 484.67969 C 393.7338 485.64858 392.02257 487.65786 390.11328 490.70703 L 390.11328 484.25195 L 378.95703 484.25195 L 378.95703 529.64648 L 390.96875 529.64648 L 390.96875 515.62695 C 390.96875 507.90429 391.2977 502.8324 391.95312 500.41016 C 392.63705 497.98792 393.5621 496.3201 394.73047 495.4082 C 395.89884 494.4678 397.32454 493.99805 399.00586 493.99805 C 400.74417 493.99805 402.62515 494.65399 404.64844 495.96484 L 408.36719 485.49219 C 405.83096 483.98185 403.19468 483.22656 400.45898 483.22656 z M 141.12305 484.25195 L 141.12305 529.64648 L 153.13477 529.64648 L 153.13477 484.25195 L 141.12305 484.25195 z M 209.38672 492.41602 C 212.3219 492.41602 214.73053 493.57066 216.61133 495.87891 C 218.49212 498.15866 219.43164 501.90616 219.43164 507.12109 C 219.43164 511.79459 218.46318 515.31444 216.52539 517.67969 C 214.5876 520.01643 212.23686 521.18359 209.47266 521.18359 C 205.99604 521.18359 203.28936 519.61708 201.35156 516.48242 C 200.01221 514.31666 199.3418 510.81127 199.3418 505.9668 C 199.3418 501.46428 200.29578 498.08719 202.20508 495.83594 C 204.14286 493.55618 206.53703 492.41602 209.38672 492.41602 z M 433.1582 492.41602 C 436.09338 492.41602 438.50201 493.57066 440.38281 495.87891 C 442.26361 498.15866 443.20313 501.90616 443.20312 507.12109 C 443.20313 511.79459 442.23466 515.31444 440.29688 517.67969 C 438.35908 520.01643 436.00834 521.18359 433.24414 521.18359 C 429.76752 521.18359 427.06084 519.61708 425.12305 516.48242 C 423.78369 514.31666 423.11328 510.81127 423.11328 505.9668 C 423.11328 501.46428 424.06727 498.08719 425.97656 495.83594 C 427.91436 493.55618 430.30852 492.41602 433.1582 492.41602 z M 355.83203 507.84766 L 355.83203 510.24023 C 355.83203 513.11842 355.67479 515.07177 355.36133 516.09766 C 354.90537 517.66499 353.95139 518.98939 352.49805 520.07227 C 350.53176 521.49711 348.46655 522.20898 346.30078 522.20898 C 344.36299 522.20898 342.76559 521.59646 341.51172 520.37109 C 340.25786 519.14573 339.63281 517.69304 339.63281 516.01172 C 339.63281 514.30191 340.4151 512.89068 341.98242 511.7793 C 343.00831 511.09537 345.1893 510.39797 348.52344 509.68555 C 351.85758 508.97312 354.2932 508.3606 355.83203 507.84766 z " /></svg>
